<?xml version="1.0" encoding="utf-8"?>
<!-- Generator: Adobe Illustrator 21.0.0, SVG Export Plug-In . SVG Version: 6.00 Build 0)  -->
<svg version="1.1"  xmlns="http://www.w3.org/2000/svg" xmlns:xlink="http://www.w3.org/1999/xlink" x="0px" y="0px"
	 viewBox="0 0 44.1 32.6" enable-background="new 0 0 44.1 32.6" xml:space="preserve">
<g>
	<path fill="#FFC259" d="M42.8,14.3c0-1.9-0.8-3.4-2-4.6c0.3,0.6-0.9,1-2.7,1.1c1.1-0.4,1.6-0.8,1.6-1.2C39.6,8.4,25.6,3,22.4,1.6
		c-3.1-1.4-16,5-18.7,6.3C2.6,8.5,2.3,9.1,2.7,9.8c-2.9-0.4-1.8,2.7-1.9,5.9c-0.1,3.5,3.2,12,4.4,14.5c1.2,2.6,31.6,1.5,34.7,1.6
		c3.2,0.1,1.3-5.1,1.2-7.4C40.9,22.1,42.6,20.7,42.8,14.3z"/>
	<path fill="#FFC259" d="M37.1,7.7c1.3,0.5,2.2,0.9,2.8,1.3C37.4,7.1,34.8,6.8,37.1,7.7z"/>
	<path fill="#FFC259" d="M39.8,8.9c0.3,0.3,0.7,0.5,1,0.8C40.7,9.5,40.4,9.2,39.8,8.9z"/>
</g>
<path fill="none" stroke="#000000" stroke-width="1.6" stroke-linecap="round" stroke-linejoin="round" stroke-miterlimit="10" d="
	M1.6,9.4c0,0-1.3,2.5-0.5,8.4s4.6,13.3,4.6,13.3l35.3,0.7l0.6-4.3c0,0-4.8-0.1-4.4-4.5c0.4-4.5,5.6-4.5,5.6-4.5l0.5-7.7
	c0,0-17.7,0-27,0S4,10.3,1.6,9.4z"/>
<path fill="none" stroke="#000000" stroke-width="1.6" stroke-linecap="round" stroke-linejoin="round" stroke-miterlimit="10" d="
	M43.3,10.8c0,0-7.8-3.2-14.4-6.3s-8.5-3.7-8.5-3.7S13.8,3.1,1.6,9.4"/>
<ellipse fill="none" stroke="#000000" stroke-width="1.6" stroke-linecap="round" stroke-linejoin="round" stroke-miterlimit="10" cx="9" cy="17.7" rx="3.8" ry="3.3"/>
<path fill="none" stroke="#000000" stroke-width="1.6" stroke-linecap="round" stroke-linejoin="round" stroke-miterlimit="10" d="
	M25.9,11.1c0.1,0.4,0.2,0.8,0.2,1.3c0,2.4-2.1,4.3-4.8,4.3s-4.8-1.9-4.8-4.3c0-0.5,0.1-0.9,0.3-1.4"/>
<ellipse fill="none" stroke="#000000" stroke-width="1.6" stroke-linecap="round" stroke-linejoin="round" stroke-miterlimit="10" cx="28" cy="23.9" rx="3.2" ry="2.8"/>
<ellipse fill="none" stroke="#000000" stroke-width="1.6" stroke-linecap="round" stroke-linejoin="round" stroke-miterlimit="10" cx="16.4" cy="25.5" rx="2.4" ry="2.2"/>
<line fill="none" stroke="#000000" stroke-width="1.6" stroke-linecap="round" stroke-linejoin="round" stroke-miterlimit="10" x1="8.9" y1="10.4" x2="24.7" y2="2.9"/>
<line fill="none" stroke="#000000" stroke-width="1.6" stroke-linecap="round" stroke-linejoin="round" stroke-miterlimit="10" x1="17.6" y1="10.8" x2="29.6" y2="5.1"/>
<line fill="none" stroke="#000000" stroke-width="1.6" stroke-linecap="round" stroke-linejoin="round" stroke-miterlimit="10" x1="27.6" y1="10.7" x2="34.7" y2="7.3"/>
<path fill="none" stroke="#000000" stroke-width="1.6" stroke-linecap="round" stroke-linejoin="round" stroke-miterlimit="10" d="
	M42.8,18.5c0,0-3.7,3.5-1.2,9"/>
</svg>
