<?xml version="1.0" encoding="utf-8"?>
<!-- Generator: Adobe Illustrator 21.0.0, SVG Export Plug-In . SVG Version: 6.00 Build 0)  -->
<svg version="1.1"  xmlns="http://www.w3.org/2000/svg" xmlns:xlink="http://www.w3.org/1999/xlink" x="0px" y="0px"
	 viewBox="0 0 33.2 36.1" enable-background="new 0 0 33.2 36.1" xml:space="preserve">
<path fill="none" stroke="#353535" stroke-width="1.6" stroke-linecap="round" stroke-linejoin="round" stroke-miterlimit="10" d="
	M4.5,14.3v8.2c0,0-0.2,12.8,12.2,12.8s12.2-12.8,12.2-12.8v-7.6"/>
<path fill="none" stroke="#353535" stroke-width="1.6" stroke-linecap="round" stroke-linejoin="round" stroke-miterlimit="10" d="
	M2.8,10.5c0-0.1-0.7-6.1,7.2-8.9s13.6,2.3,13.6,2.3s-0.9,6.5-7,9.6S5.8,14.3,4.2,14.3S2.1,15,2.1,15s-0.5-2.8,1-4.9S7,7.7,9.7,8.6
	c3.1,1,4.9-1.1,4.9-1.1"/>
<path fill="none" stroke="#353535" stroke-width="1.6" stroke-linecap="round" stroke-linejoin="round" stroke-miterlimit="10" d="
	M28.9,14.8c2.9-3.9,1.9-9.5-0.8-10.9c-2.5-1.3-4.5,0-4.5,0"/>
<path fill="none" stroke="#353535" stroke-width="1.6" stroke-linecap="round" stroke-linejoin="round" stroke-miterlimit="10" d="
	M21.9,8.9c0,0,0.6,4.7,6.7,6"/>
<path fill="none" stroke="#353535" stroke-width="1.6" stroke-linecap="round" stroke-linejoin="round" stroke-miterlimit="10" d="
	M28.9,18.5c0,0,2.4-1.2,3.3,0.7c0.9,1.8-0.9,4.4-3.3,4.8"/>
<path fill="none" stroke="#353535" stroke-width="1.6" stroke-linecap="round" stroke-linejoin="round" stroke-miterlimit="10" d="
	M4.3,18.5c0,0-2.4-1.2-3.3,0.7c-0.9,1.8,0.9,4.4,3.3,4.8"/>
<path fill="none" stroke="#353535" stroke-width="1.6" stroke-linecap="round" stroke-linejoin="round" stroke-miterlimit="10" d="
	M8.8,20.2c0,0,0.7-0.6,2.4-0.7c1.6-0.1,2.5,0.7,2.5,0.7"/>
<path fill="none" stroke="#353535" stroke-width="1.6" stroke-linecap="round" stroke-linejoin="round" stroke-miterlimit="10" d="
	M19.8,20.2c0,0,0.7-0.6,2.4-0.7c1.6-0.1,2.5,0.7,2.5,0.7"/>
<path fill="none" stroke="#353535" stroke-width="1.6" stroke-linecap="round" stroke-linejoin="round" stroke-miterlimit="10" d="
	M19.8,27.6c0,0-0.7,1.4-2.8,1.4c-2.3,0-2.8-1.4-2.8-1.4"/>
</svg>
