<?xml version="1.0" encoding="utf-8"?>
<!-- Generator: Adobe Illustrator 21.0.0, SVG Export Plug-In . SVG Version: 6.00 Build 0)  -->
<svg version="1.1"  xmlns="http://www.w3.org/2000/svg" xmlns:xlink="http://www.w3.org/1999/xlink" x="0px" y="0px"
	 viewBox="0 0 38.6 34.7" enable-background="new 0 0 38.6 34.7" xml:space="preserve">
<path fill="none" stroke="#353535" stroke-width="1.6" stroke-linecap="round" stroke-linejoin="round" stroke-miterlimit="10" d="
	M18.5,6.6c0,0-2.8,3.4-7.2,11.5S3.4,30,1.9,31.1c-1.5,1.1-2.3,3.6,3.6,2.6c6-0.9,20.1-7.7,25.6-17.2"/>
<path fill="none" stroke="#353535" stroke-width="1.6" stroke-linecap="round" stroke-linejoin="round" stroke-miterlimit="10" d="
	M16.4,6.6c0,0,3.4-0.1,5.4,0S24.6,7,24.6,7s-1.1,1-1.8,2.9c-0.7,1.8-0.5,4.9-0.5,4.9s1.7-2.5,3.4-3.5c2.1-1.3,3.4-1.1,3.4-1.1
	s0.7,0.8,1.3,2.9c0.7,2.3,0.9,5,0.9,5s5-7.4-1.3-12.8S16.4,6.6,16.4,6.6z"/>
<path fill="none" stroke="#353535" stroke-width="1.6" stroke-linecap="round" stroke-linejoin="round" stroke-miterlimit="10" d="
	M29,4.2c0,0,1-2.1,3.7-2.9s5-0.2,5-0.2v2.2c0,0-5-0.7-6.2,2.9"/>
<path fill="none" stroke="#353535" stroke-width="1.6" stroke-linecap="round" stroke-linejoin="round" stroke-miterlimit="10" d="
	M10.5,26.3c-2.3,2.4-5,4.3-8.6,6.1"/>
<path fill="none" stroke="#353535" stroke-width="1.6" stroke-linecap="round" stroke-linejoin="round" stroke-miterlimit="10" d="
	M18.9,13.3c0,0-2,2.7-3.7,6c-0.8,1.5-1.5,2.8-2.4,4"/>
</svg>
