<?xml version="1.0" encoding="utf-8"?>
<!-- Generator: Adobe Illustrator 21.0.0, SVG Export Plug-In . SVG Version: 6.00 Build 0)  -->
<svg version="1.1"  xmlns="http://www.w3.org/2000/svg" xmlns:xlink="http://www.w3.org/1999/xlink" x="0px" y="0px"
	 viewBox="0 0 38.6 34.7" enable-background="new 0 0 38.6 34.7" xml:space="preserve">
<path fill="#F56C65" d="M1.5,31.9c0,1.9,1.8,3.2,11.9-0.9S26.9,21.5,29,19.8s3.4-3.6,3.9-5.5c0.6-1.9-0.2-8.5-2.8-9.5
	s-7.2-2.7-10-0.8s-2,1.5-3.7,4.8C14.6,12.3,8,24,6,26.5S1.5,31.9,1.5,31.9z"/>
<path fill="none" stroke="#000000" stroke-width="1.6" stroke-linecap="round" stroke-linejoin="round" stroke-miterlimit="10" d="
	M18.5,6.6c0,0-2.8,3.4-7.2,11.5S3.4,30,1.9,31.1c-1.5,1.1-2.3,3.6,3.6,2.6c6-0.9,20.1-7.7,25.6-17.2"/>
<path fill="none" stroke="#000000" stroke-width="1.6" stroke-linecap="round" stroke-linejoin="round" stroke-miterlimit="10" d="
	M10.5,26.3c-2.3,2.4-5,4.3-8.6,6.1"/>
<path fill="none" stroke="#000000" stroke-width="1.6" stroke-linecap="round" stroke-linejoin="round" stroke-miterlimit="10" d="
	M18.9,13.3c0,0-2,2.7-3.7,6c-0.8,1.5-1.5,2.8-2.4,4"/>
<path fill="#00B692" d="M37.2,1.4c0,0.1-0.1,1.3-0.1,1.3s-2.4-0.2-3.8,1.1c-1.5,1.3-1.3,2.3-0.6,4.5c0.6,2.1,0.6,6.1-0.5,8
	c-1.1,1.9-1.1,0.5-1.4-1.4c-0.3-1.9-0.2-5.3-2.8-4.5s-4.1,4.2-5.2,3.8c-1.2-0.4-0.4-4,0.6-5.2s2.2-2.4,0.1-2.4S16.4,6.5,18,5.4
	s4.2-2.2,7.4-2.1s3,1.4,4.9-0.4C32.2,1.2,37.1,0.2,37.2,1.4z"/>
<path fill="none" stroke="#000000" stroke-width="1.6" stroke-linecap="round" stroke-linejoin="round" stroke-miterlimit="10" d="
	M16.4,6.6c0,0,3.4-0.1,5.4,0S24.6,7,24.6,7s-1.1,1-1.8,2.9c-0.7,1.8-0.5,4.9-0.5,4.9s1.7-2.5,3.4-3.5c2.1-1.3,3.4-1.1,3.4-1.1
	s0.7,0.8,1.3,2.9c0.7,2.3,0.9,5,0.9,5s5-7.4-1.3-12.8S16.4,6.6,16.4,6.6z"/>
<path fill="none" stroke="#000000" stroke-width="1.6" stroke-linecap="round" stroke-linejoin="round" stroke-miterlimit="10" d="
	M29,4.2c0,0,1-2.1,3.7-2.9s5-0.2,5-0.2v2.2c0,0-5-0.7-6.2,2.9"/>
</svg>
