<?xml version="1.0" encoding="utf-8"?>
<!-- Generator: Adobe Illustrator 21.0.0, SVG Export Plug-In . SVG Version: 6.00 Build 0)  -->
<svg version="1.1"  xmlns="http://www.w3.org/2000/svg" xmlns:xlink="http://www.w3.org/1999/xlink" x="0px" y="0px"
	 viewBox="0 0 43.1 38.7" enable-background="new 0 0 43.1 38.7" xml:space="preserve">
<path fill="none" stroke="#353535" stroke-width="1.6" stroke-linecap="round" stroke-linejoin="round" stroke-miterlimit="10" d="
	M24.2,1.4c3-1.6,8.9,0.1,13.7,5.2s6.5,13.3,0.7,19.1s-14.3-3.2-16.7-9S19.4,3.8,24.2,1.4z"/>
<path fill="none" stroke="#353535" stroke-width="1.6" stroke-linecap="round" stroke-linejoin="round" stroke-miterlimit="10" d="
	M29.1,8.5c1.2-0.6,4.2,0.7,5.5,2.1c1.9,2.1,2.3,5,0.3,7.6c-2.5,3.2-5.7-1.3-6.7-3.6C27.2,12.3,27.2,9.5,29.1,8.5z"/>
<path fill="none" stroke="#353535" stroke-width="1.6" stroke-linecap="round" stroke-linejoin="round" stroke-miterlimit="10" d="
	M22.9,2.2c0,0-6.7,5.1-8.9,10.1c-2.2,5.3-1.6,8-1.4,10c0.3,2-2.7,3.6-2.7,3.6s-0.4,0.9,0.5,2.4c1.2,1.8,2.5,1.6,2.5,1.6
	s2.4-2.2,3.4-2.1c1.6,0.2,11,6.9,20.2-0.7"/>
<path fill="none" stroke="#353535" stroke-width="1.6" stroke-linecap="round" stroke-linejoin="round" stroke-miterlimit="10" d="
	M9.5,26.9c0,0-1.1,0.9-2.6,1.9c-1.5,1-2.6,0.6-2.6,0.6c-0.3-0.1-0.6-0.2-1-0.2c-1.4,0-2.5,1.1-2.5,2.5c0,1.4,1.1,2.5,2.5,2.5
	c0,0,0.1,0,0.1,0C3.2,34.5,3,34.9,3,35.3c0,1.4,1.1,2.5,2.5,2.5S8,36.8,8,35.4c0,0-0.1-1.7,0.8-2.5C9.7,32,11.3,30.6,12,30"/>
<path fill="none" stroke="#353535" stroke-width="1.6" stroke-linecap="round" stroke-linejoin="round" stroke-miterlimit="10" d="
	M30.1,30.2c-0.2,0-6.2-2-9.9-8.2"/>
<path fill="none" stroke="#353535" stroke-width="1.6" stroke-linecap="round" stroke-linejoin="round" stroke-miterlimit="10" d="
	M21.8,30c-1.7-1.2-3.7-3-5.3-5.7"/>
</svg>
