<?xml version="1.0" encoding="utf-8"?>
<!-- Generator: Adobe Illustrator 21.0.0, SVG Export Plug-In . SVG Version: 6.00 Build 0)  -->
<svg version="1.1"  xmlns="http://www.w3.org/2000/svg" xmlns:xlink="http://www.w3.org/1999/xlink" x="0px" y="0px"
	 viewBox="0 0 34.9 34.9" enable-background="new 0 0 34.9 34.9" xml:space="preserve">
<path fill="#FFFFFF" d="M16.6,20.3c2.6,0.3,2.7-0.5,3,2.8c0.3,3.3,3.1,3.5,2.2,6.6s-2.2,4.4-5.6,3.5c-3.4-0.9-3.8-4.1-2.9-6
	C14.3,25.3,14.6,20.1,16.6,20.3z"/>
<path fill="#F6777A" d="M5.3,9.4c-2.2,4.8-5.9,10.4,7.2,10.7s17.6-0.4,18.6-3.7S31.3,7.8,27,5.7s-8.3-4.6-13.5-2.3S5.3,9.4,5.3,9.4z
	"/>
<line fill="none" stroke="#000000" stroke-width="1.6" stroke-linecap="round" stroke-linejoin="round" stroke-miterlimit="10" x1="0.8" y1="34.1" x2="34.1" y2="0.8"/>
<path fill="none" stroke="#000000" stroke-width="1.6" stroke-linecap="round" stroke-linejoin="round" stroke-miterlimit="10" d="
	M17.8,2.6c5,0,11.6,3.5,13.6,9.8s-3,7.8-13.1,7.8S0.7,19,3.8,12.1C6.6,5.8,13.2,2.6,17.8,2.6z"/>
<path fill="none" stroke="#000000" stroke-width="1.6" stroke-linecap="round" stroke-linejoin="round" stroke-miterlimit="10" d="
	M4.3,11.1c0,0-1.1,3.2,4.8,4.5c5.9,1.4,18.5,2.1,22.4-2.9"/>
<path fill="none" stroke="#000000" stroke-width="1.6" stroke-linecap="round" stroke-linejoin="round" stroke-miterlimit="10" d="
	M15.1,20.1c0,0,0.1,1.2,0,3.1C15.1,25,14,26.2,14,26.2c-0.6,0.8-1,1.8-1,2.9c0,2.5,2,4.5,4.5,4.5s4.5-2,4.5-4.5
	c0-1.1-0.4-2.1-1.1-2.9c-0.8-1-1.2-1.3-1.2-3.1c0-1.8,0-2.7,0-2.7"/>
<path fill="none" stroke="#000000" stroke-width="1.6" stroke-linecap="round" stroke-linejoin="round" stroke-miterlimit="10" d="
	M18.9,29.5c-0.1,0.3-0.3,0.6-0.8,0.8"/>
<path fill="none" stroke="#000000" stroke-width="1.6" stroke-linecap="round" stroke-linejoin="round" stroke-miterlimit="10" d="
	M16.3,6.9c0,0-3.1,0.5-4.8,2.5"/>
</svg>
