<?xml version="1.0" encoding="utf-8"?>
<!-- Generator: Adobe Illustrator 21.0.0, SVG Export Plug-In . SVG Version: 6.00 Build 0)  -->
<svg version="1.1"  xmlns="http://www.w3.org/2000/svg" xmlns:xlink="http://www.w3.org/1999/xlink" x="0px" y="0px"
	 viewBox="0 0 37.6 38.3" enable-background="new 0 0 37.6 38.3" xml:space="preserve">
<path fill="#00B692" stroke="#000000" stroke-width="1.6" stroke-linecap="round" stroke-linejoin="round" stroke-miterlimit="10" d="
	M36.5,18.1c0.6-1.4,0.3-3-0.7-4.1c-0.5-0.5-0.7-1.2-0.7-1.9c0-1.5-0.8-2.9-2.1-3.6c-0.6-0.3-1.1-0.9-1.3-1.6
	c-0.5-1.4-1.7-2.5-3.2-2.7c-0.7-0.1-1.3-0.5-1.8-1c-0.9-1.2-2.4-1.7-3.9-1.4c-0.7,0.1-1.4,0-2-0.4v0c-1.3-0.8-2.9-0.8-4.1,0
	c-0.6,0.4-1.3,0.5-2,0.4c-1.5-0.3-3,0.2-3.9,1.4c-0.4,0.6-1.1,0.9-1.8,1C7.6,4.4,6.4,5.5,5.9,6.9C5.7,7.6,5.2,8.1,4.6,8.4
	c-1.3,0.7-2.1,2.1-2.1,3.6c0,0.7-0.2,1.4-0.7,1.9c-1,1.1-1.3,2.7-0.7,4.1c0.3,0.7,0.3,1.4,0,2c-0.6,1.4-0.3,3,0.7,4.1
	c0.5,0.5,0.7,1.2,0.7,1.9c0,1.5,0.8,2.9,2.1,3.6c0.6,0.3,1.1,0.9,1.3,1.6c0.5,1.4,1.7,2.5,3.2,2.7c0.7,0.1,1.3,0.5,1.8,1
	c0.9,1.2,2.4,1.7,3.9,1.4c0.7-0.1,1.4,0,2,0.4c0.6,0.4,1.4,0.6,2.1,0.6s1.4-0.2,2.1-0.6c0.6-0.4,1.3-0.5,2-0.4
	c1.5,0.3,3-0.2,3.9-1.4c0.4-0.6,1.1-0.9,1.8-1c1.5-0.2,2.7-1.3,3.2-2.7c0.2-0.7,0.7-1.2,1.3-1.6c1.3-0.7,2.1-2.1,2.1-3.6
	c0-0.7,0.2-1.4,0.7-1.9c1-1.1,1.3-2.7,0.7-4.1C36.3,19.5,36.3,18.8,36.5,18.1z"/>
<g>
	<path d="M10.5,18.4v4.9H9.2v-8.4h1.2l1,2.5c0.1,0.2,0.2,0.4,0.2,0.6c0.1,0.2,0.2,0.4,0.3,0.6l0.4,1.2c0,0,0,0,0,0c0,0,0,0,0,0v-4.8
		h1.3v8.4h-1.1l-1-2.5c-0.2-0.4-0.3-0.8-0.5-1.2S10.7,18.8,10.5,18.4L10.5,18.4z"/>
	<path d="M16,23.3v-8.4h3.7v1.2h-2.4v2.3h2.1v1.2h-2.1v2.4h2.4v1.2H16z"/>
	<path d="M27.1,23.3h-1.3l-0.7-3.6c0-0.2-0.1-0.5-0.1-0.7c0-0.2-0.1-0.5-0.1-0.7h0l-0.3,1.4c-0.1,0.6-0.2,1.2-0.3,1.8
		c-0.1,0.6-0.2,1.2-0.3,1.8h-1.3l-1.2-8.4h1.4c0.1,0.5,0.1,1,0.2,1.6c0.1,0.5,0.1,1,0.2,1.6c0,0.1,0,0.2,0,0.4c0,0.2,0,0.4,0.1,0.7
		c0,0.2,0,0.5,0.1,0.7s0,0.4,0,0.4h0c0.1-0.3,0.1-0.6,0.2-0.9s0.1-0.6,0.1-0.9l0.6-3.5h1.1l0.6,3.5c0,0.3,0.1,0.6,0.1,0.9
		c0.1,0.3,0.1,0.6,0.2,0.9h0l0.2-1.9l0.3-3.5h1.4L27.1,23.3z"/>
</g>
</svg>
