<?xml version="1.0" encoding="utf-8"?>
<!-- Generator: Adobe Illustrator 21.0.0, SVG Export Plug-In . SVG Version: 6.00 Build 0)  -->
<svg version="1.1"  xmlns="http://www.w3.org/2000/svg" xmlns:xlink="http://www.w3.org/1999/xlink" x="0px" y="0px"
	 viewBox="0 0 34.9 36.3" enable-background="new 0 0 34.9 36.3" xml:space="preserve">
<path fill="none" stroke="#353535" stroke-width="1.6" stroke-linecap="round" stroke-linejoin="round" stroke-miterlimit="10" d="
	M9.6,18.2c2.5-2,5.5-2.6,4.9-6.9S8.7,2.8,8.7,2.8c6.7,0.2,8.5,4.2,8.9,7C18,7,19.8,3,26.5,2.8c0,0-5.2,4.2-5.8,8.5s2.4,4.9,4.9,6.9
	c2.2,1.7,4.4,4.3,4.4,7.9c0,4.1-2.4,7.2-6.4,8.4c-3.9,1.2-6,1-6,1s-2.1,0.2-6-1c-4-1.2-6.4-4.3-6.4-8.4C5.2,22.5,7.4,19.9,9.6,18.2z
	"/>
<line fill="none" stroke="#353535" stroke-width="1.6" stroke-linecap="round" stroke-linejoin="round" stroke-miterlimit="10" x1="17.6" y1="9.5" x2="17.6" y2="15"/>
<path fill="none" stroke="#353535" stroke-width="1.6" stroke-linecap="round" stroke-linejoin="round" stroke-miterlimit="10" d="
	M17.6,15c0,0,0.2,2.6,3,4.4c2.1,1.3,3.8,3.3,4,5.3"/>
<path fill="none" stroke="#353535" stroke-width="1.6" stroke-linecap="round" stroke-linejoin="round" stroke-miterlimit="10" d="
	M24.6,29.2c0,0-1,5.2-7,6.3"/>
<path fill="none" stroke="#353535" stroke-width="1.6" stroke-linecap="round" stroke-linejoin="round" stroke-miterlimit="10" d="
	M11.1,31.1c0.9,1.6,2.7,3.7,6.3,4.4"/>
<path fill="none" stroke="#353535" stroke-width="1.6" stroke-linecap="round" stroke-linejoin="round" stroke-miterlimit="10" d="
	M15.3,4.8c0,0,0-1.1,0.6-2.2c0.5-1,1.7-1.8,1.7-1.8s2,1.1,2.3,3.8"/>
<line fill="none" stroke="#353535" stroke-width="1.6" stroke-linecap="round" stroke-linejoin="round" stroke-miterlimit="10" x1="0.8" y1="35.5" x2="34.1" y2="2.2"/>
</svg>
