<?xml version="1.0" encoding="utf-8"?>
<!-- Generator: Adobe Illustrator 21.0.0, SVG Export Plug-In . SVG Version: 6.00 Build 0)  -->
<svg version="1.1" id="Слой_1" xmlns="http://www.w3.org/2000/svg" xmlns:xlink="http://www.w3.org/1999/xlink" x="0px" y="0px"
	 viewBox="0 0 468.4 264.9" enable-background="new 0 0 468.4 264.9" xml:space="preserve">
<g>
	<g>
		<path fill="none" d="M368.6,212.9c0,0,0.7-1,1.8-2.7s6.4-9,7.5-10.5c1.1-1.5,6-7.7,7.3-9.2c1.3-1.5,5.1-4.8,8.3-6.4
			c3.1-1.6,7.5-2.1,9.8-2.5c2.4-0.4,12.5-1.2,13.8-1.3c1.2-0.1,9.7-0.8,11.4-1s10.4-1.1,11.4-1.1s7.5-0.8,8.2-0.5s1,2,1.4,3.1
			c0.4,1.1,3.8,11,3.8,11l1.2,3.7l-2.8,0.2c0,0-3.3,1.7-2.7,5.1c0.7,3.5,1.9,4.7,3.2,5.7c1.3,0.9,4.1,1,4.1,1l1.6-0.9l1.9,6.6
			c0,0-0.8,0.5-2.9-0.8c-2.1-1.3-2.6-0.8-2.6-0.8s-0.2,1.1-1.6,2.4c-1.4,1.3-1.8,1.5-1.4,2.9c0.4,1.3,0.6,2.5,1.7,3.1
			c1.1,0.6,3.2,0.5,3.9,0.5c0.7,0,2.7,1.1,2.9,1.3c0.1,0.2,2.8,0,2.8,0l1.4,4.9c0,0-1,0.3-0.7,2.4c0.3,2.1,2.4,2.4,2.4,2.4l2.1,6.7
			c0,0-5.5,5.3-11.3,8.4c-5.9,3.1-12.5,6.7-18.2,9.1c-5.7,2.4-15.4,5.5-19.4,6.4c-4,0.9-11.1,2.2-15.3,2.3c-4.2,0.1-8.4-1-10.9-2
			c-2.5-1-6.2-5.1-6.2-5.1s-4.5-5-5.6-6.7c-1.2-1.7-4.5-7.4-5.4-9.5c-0.9-2.1-3.3-8-3.8-9.3c-0.5-1.3-1.6-4.7-2.3-6.6
			s-1.3-4.8-1.5-7.2S367.7,214.7,368.6,212.9z"/>
		<g>
			
				<path fill="none" stroke="#42403D" stroke-width="1.4" stroke-linecap="round" stroke-linejoin="round" stroke-miterlimit="10" d="
				M367.6,217.3c-0.7-7,6.5-7.3,21.9-14.7c15.5-7.4,30.5-13.3,42.8-18.2s15.8-6.8,15.8-6.8l6.3,18c0,0-10.1-1.1-9,8s12.4,3,12.4,3
				l2,6.6c0,0-1,0.6-2.4-0.4c-1.5-1-2.2-2.2-4.3-0.7s-3.9,1.3-5.5,1.4c-1.6,0-1.6,3-1.4,5.5c0.2,2.4,1.8,2.3,3.1,3.6
				c1.3,1.3,2.4,3.8,5.6,2.6c3.2-1.2,1.6-3,4.4-3.2c2.7-0.2,3.3,0,3.3,0l1.4,4.7c0,0-3.6,0.4-3,3.2s4.5,1.6,4.5,1.6s2.1,5.5,2.3,6.7
				c0.2,1.2-18,14.7-41.6,22c-23.7,7.2-32.8,3.7-36.4,0.5c-3.6-3.2-10.4-9.3-15.8-22.6C368.5,224.6,368,221.7,367.6,217.3z"/>
			
				<path fill="none" stroke="#42403D" stroke-width="1.4" stroke-linecap="round" stroke-linejoin="round" stroke-miterlimit="10" d="
				M452.4,195.6c0,0-5,1.3-3,7.2c2,5.9,7.4,4.4,7.4,4.4"/>
			
				<path fill="none" stroke="#42403D" stroke-width="1.4" stroke-linecap="round" stroke-linejoin="round" stroke-miterlimit="10" d="
				M454.3,211.5c0,0,0,1.1-1.9,2.4c-1.9,1.4-1.5,4.2,0.2,5.8c1.7,1.5,2.8,0.3,5,1s2.4,1.2,2.4,1.2"/>
			
				<path fill="none" stroke="#42403D" stroke-width="1.4" stroke-linecap="round" stroke-linejoin="round" stroke-miterlimit="10" d="
				M410.8,218.8c4.3,1.3,4.7-2,5.9-3.8c1.2-1.8,0.9-3.5,1.3-5.5c0.4-2-0.4-4.5-2.7-4.8c-2.4-0.3-1.6,1.1-4.9,3.2
				C407.2,210.1,401.5,215.9,410.8,218.8z"/>
			
				<path fill="none" stroke="#42403D" stroke-width="1.4" stroke-linecap="round" stroke-linejoin="round" stroke-miterlimit="10" d="
				M380,217c1.9-4.4,5.5-2.5,6.6,0.3c1.1,2.8-1.9,4.5-1.3,6.4s-1.7,5.1-3.6,1.9C379.7,222.4,378.2,221.1,380,217z"/>
			
				<path fill="none" stroke="#42403D" stroke-width="1.4" stroke-linecap="round" stroke-linejoin="round" stroke-miterlimit="10" d="
				M400.4,237.7c-1.5-5,8.4-4.1,10.5-0.9c2.1,3.2,1.5,6.5-3.3,5.7C402.9,241.7,401.9,242.9,400.4,237.7z"/>
			
				<path fill="none" stroke="#42403D" stroke-width="1.4" stroke-linecap="round" stroke-linejoin="round" stroke-miterlimit="10" d="
				M439.9,236.3c-1.5-5,8.4-4.1,10.5-0.9s1.5,6.5-3.3,5.7C442.3,240.3,441.4,241.5,439.9,236.3z"/>
			
				<path fill="none" stroke="#42403D" stroke-width="1.4" stroke-linecap="round" stroke-linejoin="round" stroke-miterlimit="10" d="
				M424.2,227.8c-1.3-5.1,0.8-8.1,5.6-8.8c4.8-0.7,4.3,3.1,7.6,3.1c3.2,0,2.9,3.1,2.1,4.4s-4.3,2.8-6.5,4.7
				c-2.2,1.9-3.9,2.8-6.4,1.1C424,230.6,424.9,230.5,424.2,227.8z"/>
			
				<path fill="none" stroke="#42403D" stroke-width="1.4" stroke-linecap="round" stroke-linejoin="round" stroke-miterlimit="10" d="
				M424.6,243.3c-0.7-2.6,3-1.4,2.9,0.7S425.2,245.4,424.6,243.3z"/>
			
				<path fill="none" stroke="#42403D" stroke-width="1.4" stroke-linecap="round" stroke-linejoin="round" stroke-miterlimit="10" d="
				M402.6,250.3c1.7-1,1.6,1.8,0.1,2.2C401.2,252.8,401.2,251.1,402.6,250.3z"/>
			
				<path fill="none" stroke="#42403D" stroke-width="1.4" stroke-linecap="round" stroke-linejoin="round" stroke-miterlimit="10" d="
				M395.7,249.8c-1.3-1.5,1.5-1.9,2.1-0.5C398.5,250.7,396.8,251,395.7,249.8z"/>
			
				<path fill="none" stroke="#42403D" stroke-width="1.4" stroke-linecap="round" stroke-linejoin="round" stroke-miterlimit="10" d="
				M388.5,238.3c-0.6-1.9,2.1-1.2,2.1,0.4C390.7,240.3,389,239.9,388.5,238.3z"/>
			
				<path fill="none" stroke="#42403D" stroke-width="1.4" stroke-linecap="round" stroke-linejoin="round" stroke-miterlimit="10" d="
				M427,206.8c2.1,0.9,2.7-2.6,2-4.1c-0.7-1.5-3.1-2.4-4.2-0.3C423.7,204.6,424.3,205.6,427,206.8z"/>
			
				<path fill="none" stroke="#42403D" stroke-width="1.4" stroke-linecap="round" stroke-linejoin="round" stroke-miterlimit="10" d="
				M437.5,214.8c2.1,0.9,2.7-2.6,2-4.1c-0.7-1.5-3.1-2.4-4.2-0.3C434.2,212.6,434.8,213.7,437.5,214.8z"/>
			
				<path fill="none" stroke="#42403D" stroke-width="1.4" stroke-linecap="round" stroke-linejoin="round" stroke-miterlimit="10" d="
				M448.2,177.6c-2.2-0.1-28.1,2.5-41.2,3.7c-11.2,1-14.1,2.4-19.7,7.2c-5.5,4.7-18.2,24-18.2,24"/>
			
				<path fill="none" stroke="#42403D" stroke-width="1.4" stroke-linecap="round" stroke-linejoin="round" stroke-miterlimit="10" d="
				M381.9,205.9c0.4-0.2,9.7-13.6,9.7-13.6"/>
			
				<path fill="none" stroke="#42403D" stroke-width="1.4" stroke-linecap="round" stroke-linejoin="round" stroke-miterlimit="10" d="
				M391,201.7c0.4-0.2,9.8-13.8,9.8-13.8"/>
			
				<line fill="none" stroke="#42403D" stroke-width="1.4" stroke-linecap="round" stroke-linejoin="round" stroke-miterlimit="10" x1="400" y1="197.6" x2="410.1" y2="183.4"/>
			
				<path fill="none" stroke="#42403D" stroke-width="1.4" stroke-linecap="round" stroke-linejoin="round" stroke-miterlimit="10" d="
				M408.5,194c0.3-0.2,7.2-10,9.4-13.2"/>
			
				<line fill="none" stroke="#42403D" stroke-width="1.4" stroke-linecap="round" stroke-linejoin="round" stroke-miterlimit="10" x1="417.2" y1="190.4" x2="424.4" y2="180.2"/>
			
				<line fill="none" stroke="#42403D" stroke-width="1.4" stroke-linecap="round" stroke-linejoin="round" stroke-miterlimit="10" x1="425.5" y1="187" x2="430.7" y2="179.6"/>
			
				<path fill="none" stroke="#42403D" stroke-width="1.4" stroke-linecap="round" stroke-linejoin="round" stroke-miterlimit="10" d="
				M442,169.7"/>
			
				<line fill="none" stroke="#42403D" stroke-width="1.4" stroke-linecap="round" stroke-linejoin="round" stroke-miterlimit="10" x1="434" y1="183.7" x2="437.3" y2="179"/>
			
				<line fill="none" stroke="#42403D" stroke-width="1.4" stroke-linecap="round" stroke-linejoin="round" stroke-miterlimit="10" x1="444.3" y1="179.5" x2="445.4" y2="177.8"/>
			
				<path fill="none" stroke="#42403D" stroke-width="1.4" stroke-linecap="round" stroke-linejoin="round" stroke-miterlimit="10" d="
				M448.9,201.3c0,0-1.5,0.9-3.3,2.9"/>
			
				<path fill="none" stroke="#42403D" stroke-width="1.4" stroke-linecap="round" stroke-linejoin="round" stroke-miterlimit="10" d="
				M449.8,206.4c0,0-0.3,0.1-1.9,1.5"/>
			
				<path fill="none" stroke="#42403D" stroke-width="1.4" stroke-linecap="round" stroke-linejoin="round" stroke-miterlimit="10" d="
				M454.4,207.3c0,0,0.2-0.2-1.2,1"/>
			
				<path fill="none" stroke="#42403D" stroke-width="1.4" stroke-linecap="round" stroke-linejoin="round" stroke-miterlimit="10" d="
				M450.4,218c0,0-1.5,0.8-3.3,2.6"/>
			
				<path fill="none" stroke="#42403D" stroke-width="1.4" stroke-linecap="round" stroke-linejoin="round" stroke-miterlimit="10" d="
				M452.8,221.7c0,0-1.1,0.8-2.5,2"/>
			
				<path fill="none" stroke="#42403D" stroke-width="1.4" stroke-linecap="round" stroke-linejoin="round" stroke-miterlimit="10" d="
				M464,226.6c0,0-1.5,0.9-0.8,2.7c0.7,1.8,2.2,2,2.2,2"/>
			
				<polyline fill="none" stroke="#42403D" stroke-width="1.4" stroke-linecap="round" stroke-linejoin="round" stroke-miterlimit="10" points="
				396.1,207.6 395.1,208.5 392.6,210.9 			"/>
			
				<line fill="none" stroke="#42403D" stroke-width="1.4" stroke-linecap="round" stroke-linejoin="round" stroke-miterlimit="10" x1="400.2" y1="210.6" x2="394.6" y2="215.9"/>
			
				<polyline fill="none" stroke="#42403D" stroke-width="1.4" stroke-linecap="round" stroke-linejoin="round" stroke-miterlimit="10" points="
				409.6,223.2 408.7,224.1 406.1,226.5 			"/>
			
				<line fill="none" stroke="#42403D" stroke-width="1.4" stroke-linecap="round" stroke-linejoin="round" stroke-miterlimit="10" x1="413.8" y1="226.2" x2="408.1" y2="231.4"/>
			
				<line fill="none" stroke="#42403D" stroke-width="1.4" stroke-linecap="round" stroke-linejoin="round" stroke-miterlimit="10" x1="429.3" y1="191.3" x2="425.2" y2="195.1"/>
			
				<line fill="none" stroke="#42403D" stroke-width="1.4" stroke-linecap="round" stroke-linejoin="round" stroke-miterlimit="10" x1="432.2" y1="194" x2="429.2" y2="196.8"/>
			
				<polyline fill="none" stroke="#42403D" stroke-width="1.4" stroke-linecap="round" stroke-linejoin="round" stroke-miterlimit="10" points="
				408.8,253.7 407.9,254.5 405.3,256.9 			"/>
			
				<line fill="none" stroke="#42403D" stroke-width="1.4" stroke-linecap="round" stroke-linejoin="round" stroke-miterlimit="10" x1="413" y1="255.4" x2="407.3" y2="260.6"/>
			
				<polyline fill="none" stroke="#42403D" stroke-width="1.4" stroke-linecap="round" stroke-linejoin="round" stroke-miterlimit="10" points="
				437.3,243.6 436.4,244.4 433.8,246.8 			"/>
			
				<line fill="none" stroke="#42403D" stroke-width="1.4" stroke-linecap="round" stroke-linejoin="round" stroke-miterlimit="10" x1="441.5" y1="246.6" x2="435.8" y2="251.8"/>
			
				<line fill="none" stroke="#42403D" stroke-width="1.4" stroke-linecap="round" stroke-linejoin="round" stroke-miterlimit="10" x1="415.2" y1="211.8" x2="408.6" y2="218"/>
			
				<line fill="none" stroke="#42403D" stroke-width="1.4" stroke-linecap="round" stroke-linejoin="round" stroke-miterlimit="10" x1="410.9" y1="211.2" x2="406.3" y2="215.5"/>
			
				<line fill="none" stroke="#42403D" stroke-width="1.4" stroke-linecap="round" stroke-linejoin="round" stroke-miterlimit="10" x1="382.3" y1="217.9" x2="379.3" y2="220.7"/>
			
				<line fill="none" stroke="#42403D" stroke-width="1.4" stroke-linecap="round" stroke-linejoin="round" stroke-miterlimit="10" x1="384.2" y1="220.9" x2="380.8" y2="224.2"/>
			
				<line fill="none" stroke="#42403D" stroke-width="1.4" stroke-linecap="round" stroke-linejoin="round" stroke-miterlimit="10" x1="404.4" y1="237.9" x2="401.5" y2="240.5"/>
			
				<line fill="none" stroke="#42403D" stroke-width="1.4" stroke-linecap="round" stroke-linejoin="round" stroke-miterlimit="10" x1="408.5" y1="239.6" x2="405.7" y2="242.2"/>
			
				<line fill="none" stroke="#42403D" stroke-width="1.4" stroke-linecap="round" stroke-linejoin="round" stroke-miterlimit="10" x1="443.9" y1="236.4" x2="441" y2="239"/>
			
				<line fill="none" stroke="#42403D" stroke-width="1.4" stroke-linecap="round" stroke-linejoin="round" stroke-miterlimit="10" x1="447.8" y1="238.2" x2="445" y2="240.8"/>
			
				<path fill="none" stroke="#42403D" stroke-width="1.4" stroke-linecap="round" stroke-linejoin="round" stroke-miterlimit="10" d="
				M420.4,252.9c1.9-1.1-0.4-3.7-2-4.1c-1.6-0.4-3.8,0.9-2.8,3.1C416.6,254.2,417.8,254.4,420.4,252.9z"/>
			
				<polyline fill="none" stroke="#42403D" stroke-width="1.4" stroke-linecap="round" stroke-linejoin="round" stroke-miterlimit="10" points="
				427.2,226.3 424.5,228.8 424.4,228.8 			"/>
			
				<polyline fill="none" stroke="#42403D" stroke-width="1.4" stroke-linecap="round" stroke-linejoin="round" stroke-miterlimit="10" points="
				431.9,227.4 426.7,232.2 426.7,232.2 			"/>
			
				<path fill="none" stroke="#42403D" stroke-width="1.4" stroke-linecap="round" stroke-linejoin="round" stroke-miterlimit="10" d="
				M368.1,220.8c0.8-0.2,4.3-1,6.8-2.4"/>
			
				<path fill="none" stroke="#42403D" stroke-width="1.4" stroke-linecap="round" stroke-linejoin="round" stroke-miterlimit="10" d="
				M370,227.6c1.3-0.3,4.1-1.1,6.3-2.3"/>
			
				<path fill="none" stroke="#42403D" stroke-width="1.4" stroke-linecap="round" stroke-linejoin="round" stroke-miterlimit="10" d="
				M372.6,234.3c1.4-0.4,3.9-1.1,5.9-2.2"/>
			
				<path fill="none" stroke="#42403D" stroke-width="1.4" stroke-linecap="round" stroke-linejoin="round" stroke-miterlimit="10" d="
				M375.7,241.9c1.4-0.4,3.9-1.1,5.9-2.2"/>
			
				<path fill="none" stroke="#42403D" stroke-width="1.4" stroke-linecap="round" stroke-linejoin="round" stroke-miterlimit="10" d="
				M379.7,249.2c1.5-0.4,3.7-1.1,5.5-2.1"/>
			
				<path fill="none" stroke="#42403D" stroke-width="1.4" stroke-linecap="round" stroke-linejoin="round" stroke-miterlimit="10" d="
				M385.4,256.3c1.4-0.4,3.7-1.1,5.6-2.1"/>
			
				<path fill="none" stroke="#42403D" stroke-width="1.4" stroke-linecap="round" stroke-linejoin="round" stroke-miterlimit="10" d="
				M393.4,262.7c1.1-0.4,2.4-0.9,3.4-1.5"/>
			
				<path fill="none" stroke="#42403D" stroke-width="1.4" stroke-linecap="round" stroke-linejoin="round" stroke-miterlimit="10" d="
				M450,183.1c0,0-5.4,2.7-11.4,5.2"/>
			
				<path fill="none" stroke="#42403D" stroke-width="1.4" stroke-linecap="round" stroke-linejoin="round" stroke-miterlimit="10" d="
				M451.7,188c0,0-3.6,1.8-8.2,3.8"/>
		</g>
	</g>
	<g>
		<path fill="none" d="M145.4,202.6c0,0-2.7,3.6-7.2,3.4s-8.1-2.4-10.5-9.2c-2.4-6.8,0-13.9,4.5-19c4.5-5.1,11.9-8.1,15.9-8.3
			c3.9-0.2,9.1,0,12.8,3.9c3.7,3.9,6,6.3,5.3,10.8s-3.1,6-4.3,6.5c-1.3,0.5-2.9,0.9-1.8,1.8c1.1,1,7.2,5.4,9,8.5
			c1.8,3.1,1.9,3.7,1.3,5.7c-0.6,2-4.7,5.9-8.2,7.2s-4.8,1-7-3c-2.1-4-5.9-10.5-5.9-10.5s-1.3-3-2.1-0.9
			C146.2,201.6,145.4,202.6,145.4,202.6z"/>
		<g>
			
				<path fill="none" stroke="#42403D" stroke-width="1.4" stroke-linecap="round" stroke-linejoin="round" stroke-miterlimit="10" d="
				M159,185.2c3.3-2.2,2.2-7.4-2.3-6.5c-4.5,0.9-4.7,5-2.7,7.7c2,2.7,7.1,7.2,11.3,10.4c4.2,3.1,4.9,7.2,4.9,7.2s-2.4-3-7.3-0.4
				c-4.9,2.6-7.6,6.5-6.8,8.9c0,0-6.6-13.1-9.9-16.5c-3.2-3.5-8.1-0.5-7.3,3.4s4.6,3.9,5.8,3.5"/>
			
				<path fill="none" stroke="#42403D" stroke-width="1.4" stroke-linecap="round" stroke-linejoin="round" stroke-miterlimit="10" d="
				M158.9,191.5c0,0,4.6-0.8,6.3-4.4s1.5-8-5.2-14.4c-7.2-6.9-17.3-2-23.1,1.3s-10.9,10.8-9.6,20.7c1.3,9.9,8.7,11.8,12.3,11.3
				c3.7-0.6,6.3-3.5,7.9-8"/>
			
				<path fill="none" stroke="#42403D" stroke-width="1.4" stroke-linecap="round" stroke-linejoin="round" stroke-miterlimit="10" d="
				M144.4,203c0,0-10.1,3.5-12.4-9.2c-1.4-7.6-0.5-14.2,6.1-20.5"/>
			
				<path fill="none" stroke="#42403D" stroke-width="1.4" stroke-linecap="round" stroke-linejoin="round" stroke-miterlimit="10" d="
				M156.1,212.6c0,0,1.4,4.3,8.6-0.1c7.9-4.8,5.5-8.5,5.5-8.5"/>
			
				<path fill="none" stroke="#42403D" stroke-width="1.4" stroke-linecap="round" stroke-linejoin="round" stroke-miterlimit="10" d="
				M157.3,200.5c0,0-4.4-7.2-8.2-11.6"/>
			
				<path fill="none" stroke="#42403D" stroke-width="1.4" stroke-linecap="round" stroke-linejoin="round" stroke-miterlimit="10" d="
				M137.9,189.3c0,0,1.1-1.7,3.4,0"/>
			
				<path fill="none" stroke="#42403D" stroke-width="1.4" stroke-linecap="round" stroke-linejoin="round" stroke-miterlimit="10" d="
				M146.4,186.2c-0.1-0.1-1.5-2-2-2.7"/>
			
				<path fill="none" stroke="#42403D" stroke-width="1.4" stroke-linecap="round" stroke-linejoin="round" stroke-miterlimit="10" d="
				M156.8,213.2c0.1-0.1,7.4-4.9,7.4-4.9"/>
		</g>
	</g>
	<g>
		<path fill="none" d="M366.8,107.2c0,0,2,3.2,0.8,8c-1.1,4.8-7.3,8.4-7.3,8.4s-3.4,2.2-11.8,3.5c-8.4,1.2-22.1,3.6-22.1,3.6
			s-7.2,1.3-12.1,0.2c-4.9-1.1-7.8-3.7-9-4.8c-1.1-1.2-1.7-3.6-1.8-4.1c0-0.5,0.2-0.5-0.4-0.8c-0.6-0.3-5.9-2.5-9.4-5.7
			c-3.5-3.2-5.4-6.6-5.6-11c-0.2-4.4,1.8-7.9,2.4-8.8s2.6-4,2.6-4s-3.7-2.1-3.1-5.5c0.6-3.4,1.3-6.5,4.2-10c2.9-3.4,6.1-7,11.2-11.1
			c5.1-4.1,12.8-10,16-11.7c3.2-1.7,7.5-4.3,10.8-4.5c3.3-0.2,5.5,0.3,6.2,0.5s1.5-0.1,2.6,0.2c1.1,0.2,7,2.3,9.7,5.8
			c2.6,3.5,2.9,3.4,3.6,6.1s0.1,3.9,0.1,3.9s-0.3,0.2,1.4-0.2s4.4,0.1,7.3,2.5c2.9,2.5,3.6,4.8,4.4,6.1c0.7,1.3,1.2,4.5,1.1,5.6
			c-0.1,1,1.5,8.7,1.5,8.7s2.4,2.8,2,7s-1.7,6.5-2.5,7.9c-0.8,1.5-3.1,3.4-3.1,3.4l-0.3,0L366.8,107.2z"/>
		<path fill="none" d="M350,101.2c0,0-0.5-1-0.8-2.2c-0.3-1.1-0.8-2-0.3-2.1c0.5-0.1,2.3-0.2,2.7-2.6c0.5-2.4,1-4.9-0.1-7.3
			c-1.1-2.4-3.6-6.5-3.6-6.5s-1.6-1.8-2.4-2.2c-0.8-0.4-2.5-0.3-2.5-0.8s0-1.8-0.3-2.6s-0.9-1.6-0.3-2.1c0.6-0.6,1.8-1.4,1.8-1.4
			s0,2,1.6,3s4.6,1.4,4.6,1.4s-0.4,1.6,0.6,2.2c1,0.6,2.5,3.4,2.5,3.4l1.7,8c0,0,0.9,0.6,0.3,3.2c-0.6,2.6-0.8,3.1-0.4,4.1
			s0.8,1.8,0.8,1.8s-1.9,0.3-2.7,1.1C352.2,100.4,351.8,101.3,350,101.2z"/>
		<path fill="none" d="M349.9,91.9c-0.7,0.2-1.1-0.2-1.8-1.5c-0.7-1.3-1.8-2.2-2.6-2.7c-0.9-0.6-1.4-1.1-0.8-2.4
			c0.6-1.3,1.9-3.9,1.9-3.9s10.1-1.9,13.3-2.1c3.1-0.2,10.8-0.3,14.2,0.1s8.4,1.4,11.9,3.1c3.5,1.7,5,3.6,5.9,4.9
			c0.9,1.3,1.6,3.5,1.5,4.9c-0.1,1.4-0.3,3.4-1.7,3.9c-1.4,0.5-4,1.1-6.8,0.8c-2.8-0.2-4.4-0.6-4.9-2s0-2.4,0.3-3.2
			c0.3-0.7,0.9-2.7-0.7-3.7s-4.6-0.5-7.4-0.3c-2.8,0.1-5.3,0.1-8,0.2c-2.7,0.1-6.8,0.5-8.4,0.9c-1.6,0.5-3.1,1.1-3.4,1.2
			S350.7,91.7,349.9,91.9z"/>
		<g>
			
				<path fill="none" stroke="#42403D" stroke-width="1.4" stroke-linecap="round" stroke-linejoin="round" stroke-miterlimit="10" d="
				M393,95c0.9-1.7-4.3-2.2-7.6-1.7c-3.3,0.5-4.7,2.4-3.7,3.2C382.3,96.9,391.2,98.3,393,95z"/>
			
				<path fill="none" stroke="#42403D" stroke-width="1.4" stroke-linecap="round" stroke-linejoin="round" stroke-miterlimit="10" d="
				M393.1,94.6c0,0,2.9-8.1-8.7-12.8s-27-2.6-31.5-1.5s-6.4,1.1-6.4,1.1s-2.6,4.4-1.8,5.4c0.8,1.1,2.8,2.2,3.7,4
				c0.9,1.8,2.1,1.2,3.1,0c1-1.2,6.2-3,13.9-2.8s13.8-1.3,14.9,1c1.1,2.3-0.6,3.3-0.4,5.2c0.2,1.9,1.9,2.3,1.9,2.3"/>
			
				<path fill="none" stroke="#42403D" stroke-width="1.4" stroke-linecap="round" stroke-linejoin="round" stroke-miterlimit="10" d="
				M380.5,91.1c0,0,0.2-1.4,1.4-2.7c0.9-1,1.9-1.2,1.9-1.2"/>
			
				<path fill="none" stroke="#42403D" stroke-width="1.4" stroke-linecap="round" stroke-linejoin="round" stroke-miterlimit="10" d="
				M346.9,113.2c0,0,5.5-9.4,1.2-16.7c-4.3-7.3-6-5.6-6.6-9.8c-0.6-5.1,4.8-9.9-2.3-17.3s-13.8-5.3-22.9,1.6s-27.2,20.4-28.1,31.3
				c-0.9,10.9,8.6,15.9,14.7,18.7c6.1,2.8,18.4,0.1,23.7-1.4c5.4-1.4,12.1-2.4,12.1-2.4"/>
			
				<path fill="none" stroke="#42403D" stroke-width="1.4" stroke-linecap="round" stroke-linejoin="round" stroke-miterlimit="10" d="
				M303.6,121.3c0,0-0.7,5.1,7.7,8.5c8.4,3.4,18,0,26.1-1.3c8-1.3,18.6-1.3,25.6-6.6c6.9-5.4,5.6-12.6,3.1-16
				c-2.5-3.4-6.9-5.1-8.7-5.2"/>
			
				<path fill="none" stroke="#42403D" stroke-width="1.4" stroke-linecap="round" stroke-linejoin="round" stroke-miterlimit="10" d="
				M366.5,106.5c0,0,4.5-3.4,5.5-9.3c1.3-7.1-2.1-9.3-2.1-9.3"/>
			
				<path fill="none" stroke="#42403D" stroke-width="1.4" stroke-linecap="round" stroke-linejoin="round" stroke-miterlimit="10" d="
				M368.7,78.9c0,0,0.3-5.9-4.8-10.7c-5.1-4.8-9.3-2.6-9.3-2.6"/>
			
				<path fill="none" stroke="#42403D" stroke-width="1.4" stroke-linecap="round" stroke-linejoin="round" stroke-miterlimit="10" d="
				M349.8,73.2c0,0,9.1-7.8,2.5-16.2c-6.6-8.4-13.4-7.5-13.4-7.5"/>
			
				<path fill="none" stroke="#42403D" stroke-width="1.4" stroke-linecap="round" stroke-linejoin="round" stroke-miterlimit="10" d="
				M338.7,68.8c0,0,6.6-6.7,5.7-12.8s-7.8-7.6-10-7.5c-2.2,0.1-9.6,1-26.2,14.3c-16.6,13.3-17.8,19.2-18.1,23
				c-0.3,4,3.2,5.8,3.2,5.8"/>
			
				<path fill="none" stroke="#42403D" stroke-width="1.4" stroke-linecap="round" stroke-linejoin="round" stroke-miterlimit="10" d="
				M349.7,101.1c0,0.1,1.2,0.5,2.8-0.9s3.4-1.5,3.4-1.5s-1-1.1-1-3.3c0-2.2,1.9-4.4,0.1-6.3"/>
			
				<path fill="none" stroke="#42403D" stroke-width="1.4" stroke-linecap="round" stroke-linejoin="round" stroke-miterlimit="10" d="
				M352.9,80.3c0,0-0.5-1.2-1.7-2.1c-1.2-0.9-0.7-2.5-0.7-2.5s-1.7,0.6-3.8-0.6c-2.1-1.2-2.5-3.6-2.5-3.6l-2.1,1.9"/>
			
				<path fill="none" stroke="#42403D" stroke-width="1.4" stroke-linecap="round" stroke-linejoin="round" stroke-miterlimit="10" d="
				M348.2,81.2c-0.1,0-1.4-3.3-5.3-3.2"/>
			
				<path fill="none" stroke="#42403D" stroke-width="1.4" stroke-linecap="round" stroke-linejoin="round" stroke-miterlimit="10" d="
				M352.1,90.3c0,0,0.5,6.4-3.7,6.6"/>
			
				<path fill="none" stroke="#42403D" stroke-width="1.4" stroke-linecap="round" stroke-linejoin="round" stroke-miterlimit="10" d="
				M325.4,71.5c0,0-5,2-7.2,7.8s1,9.6,1,9.6"/>
			
				<path fill="none" stroke="#42403D" stroke-width="1.4" stroke-linecap="round" stroke-linejoin="round" stroke-miterlimit="10" d="
				M335.8,74.4c0,0-4.3-1.4-8.9,1s-4.6,6.7-4.6,6.7"/>
			
				<path fill="none" stroke="#42403D" stroke-width="1.4" stroke-linecap="round" stroke-linejoin="round" stroke-miterlimit="10" d="
				M334.9,113.6c0,0-4,0.3-7.2-3.5c-3.2-3.8-3.4-8.2-3.4-8.2"/>
			
				<path fill="none" stroke="#42403D" stroke-width="1.4" stroke-linecap="round" stroke-linejoin="round" stroke-miterlimit="10" d="
				M351.9,125.3c-1.6,0.1-3.6-0.2-5.7-1.2c-2.9-1.5-4.3-3.9-5-5.6"/>
			
				<path fill="none" stroke="#42403D" stroke-width="1.4" stroke-linecap="round" stroke-linejoin="round" stroke-miterlimit="10" d="
				M363.9,103.7c0.1-0.1,1.9-2,2.8-4.7"/>
			
				<path fill="none" stroke="#42403D" stroke-width="1.4" stroke-linecap="round" stroke-linejoin="round" stroke-miterlimit="10" d="
				M326,55.5c0,0-2.1,2.4-1.9,6.3"/>
			
				<path fill="none" stroke="#42403D" stroke-width="1.4" stroke-linecap="round" stroke-linejoin="round" stroke-miterlimit="10" d="
				M295.8,99.5c0,0-1.3,3.9-0.5,7.3c0.8,3.6,3.7,6.2,3.7,6.2"/>
			
				<path fill="none" stroke="#42403D" stroke-width="1.4" stroke-linecap="round" stroke-linejoin="round" stroke-miterlimit="10" d="
				M314.1,122c0,0-1.6-0.4-4-2.1"/>
			
				<path fill="none" stroke="#42403D" stroke-width="1.4" stroke-linecap="round" stroke-linejoin="round" stroke-miterlimit="10" d="
				M339.4,93.4c0,0,2.3,1,3.8,3.8c1.3,2.4,1.5,3.7,1.5,3.7"/>
			
				<path fill="none" stroke="#42403D" stroke-width="1.4" stroke-linecap="round" stroke-linejoin="round" stroke-miterlimit="10" d="
				M338.6,109.9c0,0-2,0.3-3.9,0"/>
			
				<path fill="none" stroke="#42403D" stroke-width="1.4" stroke-linecap="round" stroke-linejoin="round" stroke-miterlimit="10" d="
				M339.1,122.2c0,0-8.9,1.6-12,2.8c-3.1,1.1-9.2,2-11.5,2"/>
			
				<path fill="none" stroke="#42403D" stroke-width="1.4" stroke-linecap="round" stroke-linejoin="round" stroke-miterlimit="10" d="
				M365.1,88.2c0,0,0.8,0.8,1.3,1.9"/>
			
				<path fill="none" stroke="#42403D" stroke-width="1.4" stroke-linecap="round" stroke-linejoin="round" stroke-miterlimit="10" d="
				M359.9,88.2c0,0,1,1.1,1.5,2.1"/>
			
				<path fill="none" stroke="#42403D" stroke-width="1.4" stroke-linecap="round" stroke-linejoin="round" stroke-miterlimit="10" d="
				M383.9,87.2c0,0-4.6-2.9-10.5-3.3s-10.9-0.3-14,0.3c-3.1,0.6-5.4,1.1-9.2,1.7c-3.8,0.6-5.4,0.2-5.4,0.2"/>
			
				<path fill="none" stroke="#42403D" stroke-width="1.4" stroke-linecap="round" stroke-linejoin="round" stroke-miterlimit="10" d="
				M318,69.8c0,0-1-1.2-1.2-3.9c-0.1-2.5,1.2-4,1.2-4"/>
			
				<path fill="none" stroke="#42403D" stroke-width="1.4" stroke-linecap="round" stroke-linejoin="round" stroke-miterlimit="10" d="
				M313.2,73.4c0,0-1.3-0.8-2.2-3.4c-0.8-2.4,0-4.2,0-4.2"/>
			
				<path fill="none" stroke="#42403D" stroke-width="1.4" stroke-linecap="round" stroke-linejoin="round" stroke-miterlimit="10" d="
				M307.8,77.6c0,0-1.3-0.8-2.3-3.4c-0.8-2.4,0-4.2,0-4.2"/>
			
				<path fill="none" stroke="#42403D" stroke-width="1.4" stroke-linecap="round" stroke-linejoin="round" stroke-miterlimit="10" d="
				M302.5,82.1c0,0-1.3-0.8-2.3-3.4c-0.8-2.4,0-4.2,0-4.2"/>
			
				<path fill="none" stroke="#42403D" stroke-width="1.4" stroke-linecap="round" stroke-linejoin="round" stroke-miterlimit="10" d="
				M297.7,86.6c0,0-1.3-0.8-2.3-3.4c-0.6-1.6-0.4-2.9-0.2-3.6"/>
		</g>
	</g>
	<g>
		<path fill="none" stroke="#42403C" stroke-miterlimit="10" d="M199.5,26.3c-1.2,1.5-2.8,5.3-3.5,7.4c-0.7,2.1-1.7,6.4-2.8,8.3
			c-1.1,1.8-3,3.1-4.8,3.6s-5.4,0.9-7.7,0.9c-2.3,0-5.7,0.2-5.7,0.2s-1.1-0.2-1.6,0.3c-0.2,0-0.4,0.1-0.5,0.2
			c-0.4,0.6-0.9,2-0.8,4.1c0.1,2.1,0.3,2.4,0.6,2.6c0,0,0.6,0.7,1.8-0.2c0.1,0.2,0.1,0.4,0.1,0.4s9.9-0.6,13.1,0.1
			c3.2,0.7,5.5,2.2,7.7,5c2.2,2.8,6.7,8.3,9.5,10.9c2.8,2.7,6,4.9,8.8,5.3c2.8,0.4,6.4,0.9,9.5,0.1c3.1-0.8,7.2-3.2,8.9-4.9
			c1.7-1.6,3.6-4.2,4-5.9c0.5-1.7,1.3-5.4,0.7-7.8c-0.6-2.3-1.7-4.6-1.7-4.6s3.8-4.2,2.9-9.5c-0.9-5.3-3.5-7.7-4.2-8.5
			c-0.7-0.8-2.2-1.1-2.2-1.1s-1.9-4.5-4.8-7c-2.9-2.5-5.8-4.7-8.9-5c-3.1-0.3-5.8,0.4-7.2,1.1c-1.4,0.7-1.9,0.9-1.9,0.9
			s-2.1-0.9-4.5-0.4C201.8,23.1,200.6,24.8,199.5,26.3z"/>
		<g>
			<path fill="none" stroke="#42403C" stroke-miterlimit="10" d="M173.6,54.1c-0.3,0,2.7-1,2.6-2.9c-0.2-3.2-2.4-3.8-2.5-4.2
				c0-0.4,3.9-0.4,8.1-0.7c4.3-0.3,10.5,0.6,12.7-7.8s4.8-13.8,8.3-15.3c3.4-1.5,6.1,0,6.1,0s8-5.2,15.2,0.5
				c7.1,5.7,7.7,9.5,7.7,9.5s3.7,0.8,5.8,7.3c2.5,8.1-2.5,11.8-2.5,11.8s5.5,8.9-2,17c-7.5,8.2-17.9,7.9-24.4,3.7
				c-6.5-4.2-11.3-11.9-14.9-15.8S182,53.2,173.6,54.1z"/>
			<path fill="none" stroke="#42403C" stroke-miterlimit="10" d="M176.3,50.4c0,0,9.5-1.2,17.5,1.6"/>
			<path fill="none" stroke="#42403C" stroke-miterlimit="10" d="M223.6,66.4c2.5,0,7.9-0.4,12.6-2.6"/>
			<path fill="none" stroke="#42403C" stroke-miterlimit="10" d="M227.6,59.8c2.5-0.2,5.7-0.8,8.8-2.2"/>
			<path fill="none" stroke="#42403C" stroke-miterlimit="10" d="M235,52.4c0,0-7.3,2-13.1,0.8c-5.9-1.2-14-3.1-18.4-3.3"/>
			<path fill="none" stroke="#42403C" stroke-miterlimit="10" d="M219.9,61.7c-0.1-0.2-4.2-0.3-12.4-4.9"/>
			<path fill="none" stroke="#42403C" stroke-miterlimit="10" d="M219.6,68.8c0,0-8.1-1.8-15.3-7.9"/>
			<path fill="none" stroke="#42403C" stroke-miterlimit="10" d="M238.1,42.9c0,0-2.5-2.7-6.7-3.3"/>
			<path fill="none" stroke="#42403C" stroke-miterlimit="10" d="M237.7,48.3c0,0-1.2-1.3-3.4-2.3"/>
			<path fill="none" stroke="#42403C" stroke-miterlimit="10" d="M216.4,26.9c0,0,2.6-1.5,7.5-0.1c4.9,1.5,5.8,2.8,5.8,2.8"/>
			<path fill="none" stroke="#42403C" stroke-miterlimit="10" d="M232.9,33.8c0,0-3.8-2.3-11.2-1.4c-6.6,0.8-14.7,7.4-19.5,10"/>
			<path fill="none" stroke="#42403C" stroke-miterlimit="10" d="M208.8,23.2c0,0-4.7,2.7-7,8.7c-0.4,1-0.9,2-1.4,2.9"/>
			<path fill="none" stroke="#42403C" stroke-miterlimit="10" d="M205.2,46.2c0,0,6.3,0.3,10.3,0.5"/>
			<path fill="none" stroke="#42403C" stroke-miterlimit="10" d="M209.5,42.8c0.1,0,5-1,5.6-1.2"/>
			<path fill="none" stroke="#42403C" stroke-miterlimit="10" d="M173.6,54.1c0,0-1.8,1-1.6-3.3c0.2-4.4,1.8-3.9,1.8-3.9"/>
		</g>
	</g>
	<g>
		
			<path fill="none" stroke="#42403D" stroke-width="1.6" stroke-linecap="round" stroke-linejoin="round" stroke-miterlimit="10" d="
			M107.3,8.5c0,0,3.3,4,8.5,13.4c5.2,9.4,9.2,13.9,10.9,15.2c1.7,1.3,2.7,4.2-4.2,3.1s-23.4-9-30-20.1"/>
		
			<path fill="none" stroke="#42403D" stroke-width="1.6" stroke-linecap="round" stroke-linejoin="round" stroke-miterlimit="10" d="
			M116.6,31.4c2.6,2.9,5.8,5,10.1,7.2"/>
		
			<path fill="none" stroke="#42403D" stroke-width="1.6" stroke-linecap="round" stroke-linejoin="round" stroke-miterlimit="10" d="
			M106.8,16.3c0,0,2.3,3.2,4.3,7c0.9,1.7,1.8,3.3,2.8,4.7"/>
		
			<path fill="none" stroke="#42403D" stroke-width="1.6" stroke-linecap="round" stroke-linejoin="round" stroke-miterlimit="10" d="
			M109.7,8.5c0,0-4-0.1-6.3,0C101,8.6,100.1,9,100.1,9s1.3,1.2,2.1,3.4c0.9,2.1,0.5,5.7,0.5,5.7s-2-2.9-4-4.1
			c-2.5-1.5-3.9-1.3-3.9-1.3s-0.8,1-1.5,3.4c-0.8,2.7-1.1,5.8-1.1,5.8S86.4,13.3,93.7,7S109.7,8.5,109.7,8.5z"/>
		
			<path fill="none" stroke="#42403D" stroke-width="1.6" stroke-linecap="round" stroke-linejoin="round" stroke-miterlimit="10" d="
			M95,5.6c0,0-1.2-2.4-4.4-3.4S84.7,2,84.7,2v2.6c0,0,5.8-0.8,7.2,3.4"/>
	</g>
	<g>
		<path fill="none" d="M14.7,0.9c-1.1-0.2-4.4-0.2-6.6,1.2S3.4,6.6,2.3,8.6S0.6,13.1,0.8,15s0.7,3.3,1.7,4.3S4.4,21,4.4,21l5.2,2.6
			c0,0,2.1,1.3,3.4,0.9c1.3-0.4,4.3-1.5,6.4-3.8c2.1-2.3,4-6.3,4.4-8.1c0.4-1.8,0.5-3.6-0.1-5.4S22.1,5,21.7,4.8
			c-0.3-0.2-3.2-2-3.2-2S15.9,1.1,14.7,0.9z M13.9,13.1c-1.8,3-3.9,3.2-3.9,3.2s-1.2-2.3,0.5-5.4s3.8-3.2,3.8-3.2S15.7,10,13.9,13.1
			z"/>
		<g>
			
				<path fill="none" stroke="#42403D" stroke-width="1.4" stroke-linecap="round" stroke-linejoin="round" stroke-miterlimit="10" d="
				M3.9,20.5c3.4,2.1,9,2.7,14-5.5S18,2.7,16.1,1.5S8-0.6,3.2,7.3S1.8,19.2,3.9,20.5z"/>
			
				<path fill="none" stroke="#42403D" stroke-width="1.4" stroke-linecap="round" stroke-linejoin="round" stroke-miterlimit="10" d="
				M6.7,15.8c1.7,1.1,4.6,1.4,7.1-2.8s0.1-6.2-0.9-6.9s-4.1-1.1-6.6,3S5.6,15.1,6.7,15.8z"/>
			
				<path fill="none" stroke="#42403D" stroke-width="1.4" stroke-linecap="round" stroke-linejoin="round" stroke-miterlimit="10" d="
				M9.9,16.4c0,0-1.3-2.5,0.6-5.7s3.8-3.1,3.8-3.1"/>
			
				<path fill="none" stroke="#42403D" stroke-width="1.4" stroke-linecap="round" stroke-linejoin="round" stroke-miterlimit="10" d="
				M4.6,20.9c0,0,6.1,3.1,6.8,3.5c0.8,0.4,6,0,10.2-6.8S23.4,6,22.4,5.3c-1.1-0.6-6.3-3.8-6.3-3.8"/>
			
				<line fill="none" stroke="#42403D" stroke-width="1.4" stroke-linecap="round" stroke-linejoin="round" stroke-miterlimit="10" x1="23.8" y1="10.9" x2="20" y2="8.8"/>
			
				<line fill="none" stroke="#42403D" stroke-width="1.4" stroke-linecap="round" stroke-linejoin="round" stroke-miterlimit="10" x1="21.2" y1="16.5" x2="18.1" y2="14.8"/>
			
				<line fill="none" stroke="#42403D" stroke-width="1.4" stroke-linecap="round" stroke-linejoin="round" stroke-miterlimit="10" x1="9.9" y1="11.8" x2="6.1" y2="9.7"/>
			
				<line fill="none" stroke="#42403D" stroke-width="1.4" stroke-linecap="round" stroke-linejoin="round" stroke-miterlimit="10" x1="4" y1="20.6" x2="5.1" y2="17.4"/>
			
				<line fill="none" stroke="#42403D" stroke-width="1.4" stroke-linecap="round" stroke-linejoin="round" stroke-miterlimit="10" x1="9" y1="21.7" x2="10" y2="18.9"/>
		</g>
	</g>
</g>
</svg>
