<?xml version="1.0" encoding="utf-8"?>
<!-- Generator: Adobe Illustrator 21.0.0, SVG Export Plug-In . SVG Version: 6.00 Build 0)  -->
<svg version="1.1"  xmlns="http://www.w3.org/2000/svg" xmlns:xlink="http://www.w3.org/1999/xlink" x="0px" y="0px"
	 viewBox="0 0 40.5 40" enable-background="new 0 0 40.5 40" xml:space="preserve">
<path fill="#00B692" d="M24.1,16.2c0,0.7,5.5,1.7,7.8,4s4,3.8,6.1,2.7c2.1-1.1,0.4-2.4,1.4-4.1c1-1.7-0.5-6.1-2.6-6.6
	s-1.5-1.1-0.8-3c0.6-1.9-0.1-4.4-2.1-5.1c-2-0.7-4.4,1.8-5.5,0.7c-1.1-1.1-2.9-4.5-5.1-4.2s-2.7,1.3-4.5,1.3c-1.9,0-2.5,2-0.6,4.2
	C19.9,8.3,23.8,9.3,24.1,16.2z"/>
<path fill="#EF9B2B" d="M0.8,38.7C2,40.9,19.6,29.3,23.4,26s7.9-7.2,4.2-8.6s-3.2-2.2-4.5-4.7c-1.3-2.5-3.4-4-8.2,2.2
	S-0.6,36,0.8,38.7z"/>
<path fill="none" stroke="#000000" stroke-width="1.6" stroke-linecap="round" stroke-linejoin="round" stroke-miterlimit="10" d="
	M29.1,18.5c0.8,3.2-5.8,7.9-12,11.8S1.6,39.8,0.9,39.1c-0.5-0.6,0.4-3.8,7.4-14.3C16.5,12.7,18.5,10.3,22,10.9"/>
<path fill="none" stroke="#000000" stroke-width="1.6" stroke-linecap="round" stroke-linejoin="round" stroke-miterlimit="10" d="
	M15.8,14.3c0,0,0,2.5,1.8,4.4"/>
<path fill="none" stroke="#000000" stroke-width="1.6" stroke-linecap="round" stroke-linejoin="round" stroke-miterlimit="10" d="
	M22,18.4c0,0,1.6,2.4,5.6,3"/>
<path fill="none" stroke="#000000" stroke-width="1.6" stroke-linecap="round" stroke-linejoin="round" stroke-miterlimit="10" d="
	M17.4,24.6c0,0,1.4,1.8,4.5,2.5"/>
<path fill="none" stroke="#000000" stroke-width="1.6" stroke-linecap="round" stroke-linejoin="round" stroke-miterlimit="10" d="
	M10.6,31c0,0,0.8,0.9,2.5,1.6"/>
<path fill="none" stroke="#000000" stroke-width="1.6" stroke-linecap="round" stroke-linejoin="round" stroke-miterlimit="10" d="
	M10.6,22.1c0.2,0.5,0.5,1.3,1.2,2.2"/>
<path fill="none" stroke="#000000" stroke-width="1.6" stroke-linecap="round" stroke-linejoin="round" stroke-miterlimit="10" d="
	M24.3,15.9c0,0-1.5-5.3-4.2-7.8s-3.8-3.4-2.7-5.3c1-1.7,4.6-1.2,7.1,2.3C28,10.2,24.3,15.9,24.3,15.9z"/>
<path fill="none" stroke="#000000" stroke-width="1.6" stroke-linecap="round" stroke-linejoin="round" stroke-miterlimit="10" d="
	M21,1.9c0,0,2.2-2.3,5.1-0.3c2.7,1.9,3.6,7.2-1.8,14.3"/>
<path fill="none" stroke="#000000" stroke-width="1.6" stroke-linecap="round" stroke-linejoin="round" stroke-miterlimit="10" d="
	M24.6,16c0,0,5.3,1.5,7.9,4.1c2.5,2.6,3.5,3.8,5.3,2.7c1.7-1,1.1-4.6-2.3-7.1C30.3,12.3,24.6,16,24.6,16z"/>
<path fill="none" stroke="#000000" stroke-width="1.6" stroke-linecap="round" stroke-linejoin="round" stroke-miterlimit="10" d="
	M38.6,19.3c0,0,2.3-2.2,0.2-5.1c-1.9-2.7-7.3-3.5-14.3,1.8"/>
<path fill="none" stroke="#000000" stroke-width="1.6" stroke-linecap="round" stroke-linejoin="round" stroke-miterlimit="10" d="
	M28.2,6c0,0,3.9-3.9,6.8-0.5c3,3.4-1.2,6.6-1.2,6.6"/>
</svg>
